<?xml version="1.0" encoding="UTF-8" standalone="no"?>
<!DOCTYPE svg PUBLIC "-//W3C//DTD SVG 1.1//EN" "http://www.w3.org/Graphics/SVG/1.1/DTD/svg11.dtd">
<svg width="100%" height="100%" viewBox="0 0 512 512" version="1.1" xmlns="http://www.w3.org/2000/svg" xmlns:xlink="http://www.w3.org/1999/xlink" xml:space="preserve" xmlns:serif="http://www.serif.com/" style="fill-rule:evenodd;clip-rule:evenodd;stroke-linecap:round;stroke-linejoin:round;stroke-miterlimit:1.5;">
    <g transform="matrix(8.677966,0,0,9.309091,841.762712,-1117.090909)">
        <rect x="-97" y="120" width="59" height="55" style="stroke:rgb(41,41,41);stroke-opacity:0;stroke-width:0.11px;"/>
    </g>
    <g transform="matrix(2.909109,0,0,2.909109,6.87637,32.406401)">
        <g transform="matrix(1,0,0,1,2.406235,-4.468723)">
            <path d="M140.74,25.486C140.74,34.034 133.464,42.06 118.917,49.557C107.156,55.633 93.9,60.054 79.144,62.828C86.376,65.081 89.992,69.349 89.992,75.648C89.992,81.348 84.732,86.296 74.213,90.497C64.825,94.246 55.335,96.12 45.743,96.12C41.617,96.12 37.801,95.224 34.294,93.428C30.789,91.635 29.036,89.874 29.036,88.152C29.036,85.835 31.051,83.629 35.079,81.533C35.802,81.383 36.163,81.642 36.163,82.309C33.963,83.863 32.865,85.566 32.865,87.415C32.865,89.563 35.913,90.635 42.009,90.635C50.79,90.635 60.396,88.511 70.832,84.267C81.262,80.02 86.482,75.843 86.482,71.748C86.482,69.812 84.624,68.136 80.907,66.719C76.775,65.231 71.665,64.486 65.577,64.486C62.891,64.486 59.51,65.078 55.43,66.259C51.352,67.441 49.003,68.029 48.385,68.029C45.391,68.029 43.893,67.391 43.893,66.118C43.893,65.291 46.446,64.203 51.554,62.855C56.659,61.507 61.431,60.83 65.869,60.83C71.646,60.83 80.365,58.458 92.025,53.712C103.683,48.969 113.741,43.606 122.203,37.63C132.007,30.832 136.908,25.004 136.908,20.146C136.908,17.757 134.943,15.832 131.018,14.374C127.094,12.917 122.496,12.19 117.229,12.19C110.619,12.19 102.407,13.126 92.593,14.995C94.035,16.418 94.757,18.138 94.757,20.157C94.757,20.458 90.17,24.161 81,31.27C69.041,40.549 58.761,48.947 50.156,56.469C41.548,63.988 33.535,71.455 26.114,78.86C19.723,85.073 16.478,88.474 16.375,89.072L16.84,89.297C19.003,87.497 21.681,85.472 24.877,83.22C25.29,83.298 25.65,83.523 25.96,83.9C23.691,86.918 21.425,89.936 19.158,92.953C15.034,98.231 12.403,100.873 11.272,100.873C9.621,100.873 8.127,99.934 6.788,98.061C5.448,96.408 4.779,94.913 4.779,93.561C4.779,91.687 8.026,87.147 14.519,79.94C20.497,73.19 27.401,66.212 35.237,59.006C52.963,42.801 69.505,28.658 84.864,16.579C69.105,20.1 52.575,25.009 35.273,31.304C19.41,37.076 11.481,40.632 11.481,41.98C11.481,42.357 11.841,42.545 12.564,42.545C17.093,42.545 31.969,36.746 57.192,25.154C58.634,25.005 59.455,25.267 59.663,25.945C57.293,28.28 49.46,32.278 36.171,37.93C22.567,43.81 13.861,46.751 10.051,46.751C8.917,46.751 7.834,46.339 6.804,45.511C5.771,44.682 5.26,43.705 5.26,42.576C5.26,40.77 11.185,37.085 23.044,31.519C35.932,25.427 49.593,20.276 64.027,16.065C81.865,10.801 97.124,8.168 109.807,8.168C130.43,8.167 140.74,13.941 140.74,25.486Z" style="fill:rgb(255,247,247);fill-rule:nonzero;"/>
        </g>
        <g transform="matrix(1,0,0,1,-3.781227,9.96869)">
            <path d="M162.514,53.629C157.149,50.628 149.212,49.126 138.693,49.126C126.01,49.126 110.75,51.761 92.914,57.024C78.478,61.234 64.815,66.386 51.928,72.479C42.307,76.992 36.593,80.27 34.776,82.311C77.19,61.909 112.759,57.366 112.759,57.366L111.906,57.966C112.518,57.825 113.139,57.673 113.747,57.537C98.388,69.618 81.847,83.761 64.119,99.966C56.286,107.171 49.38,114.15 43.402,120.9C36.909,128.106 33.663,132.647 33.663,134.52C33.663,135.871 34.331,137.368 35.671,139.02C37.011,140.894 38.504,141.833 40.155,141.833C41.286,141.833 43.917,139.191 48.041,133.912C50.309,130.894 52.575,127.876 54.843,124.859C54.534,124.482 54.173,124.255 53.761,124.179C50.564,126.431 47.887,128.459 45.723,130.255L45.259,130.029C45.67,128.531 53.399,120.802 68.449,106.848C70.818,115.017 74.117,121.767 78.344,127.089C83.907,134.359 90.554,137.992 98.288,137.992C101.793,137.992 105.245,136.945 108.645,134.854C111.118,133.355 113.075,131.71 114.517,129.917C114.003,129.094 113.177,128.833 112.047,129.13C108.438,132.359 103.901,133.969 98.441,133.969C93.184,133.969 88.905,130.127 85.609,122.436C83.548,117.584 82.001,111.798 80.969,105.079C82.825,105.445 84.685,105.626 86.542,105.626C99.433,105.626 112.585,103.301 125.994,98.65C138.474,94.447 148.89,89.119 157.25,82.667C165.601,76.217 169.778,70.25 169.778,64.771C169.779,60.047 167.357,56.333 162.514,53.629ZM151.777,78.046C142.544,84.549 131.629,90.081 119.041,94.641C105.214,99.651 92.777,102.156 81.737,102.156C78.64,102.156 76.213,101.871 74.462,101.307L78.989,97.441C87.538,89.966 97.837,81.553 109.89,72.21C119.056,65.107 123.64,61.408 123.64,61.107C123.64,59.091 122.917,57.374 121.474,55.951C131.289,54.081 139.498,53.146 146.111,53.146C159.124,53.146 165.632,55.99 165.632,61.669C165.632,66.084 161.014,71.542 151.777,78.046Z" style="fill:rgb(255,247,247);fill-rule:nonzero;"/>
        </g>
    </g>
</svg>
