<?xml version="1.0" encoding="UTF-8"?>
<!DOCTYPE svg PUBLIC "-//W3C//DTD SVG 1.1//EN" "http://www.w3.org/Graphics/SVG/1.1/DTD/svg11.dtd">
<svg version="1.1" xmlns="http://www.w3.org/2000/svg" xmlns:xlink="http://www.w3.org/1999/xlink" x="0" y="0" width="354.213" height="85.83" viewBox="0, 0, 354.213, 85.83">
  <g id="Artboard1" transform="translate(0, -0)">
    <g id="Layer_1">
      <path d="M91.112,68.185 C91.427,68.268 91.844,68.302 92.311,68.302 C94.077,68.302 95.126,67.435 95.126,65.919 C95.126,64.42 94.077,63.704 92.477,63.704 C91.844,63.704 91.362,63.77 91.112,63.82 L91.112,68.185 z M89.663,62.788 C90.362,62.654 91.278,62.555 92.444,62.555 C93.876,62.555 94.925,62.888 95.592,63.487 C96.208,64.02 96.591,64.837 96.591,65.835 C96.591,66.852 96.291,67.651 95.709,68.234 C94.942,69.051 93.693,69.467 92.277,69.467 C91.844,69.467 91.445,69.45 91.112,69.367 L91.112,73.864 L89.663,73.864 L89.663,62.788" fill="#FFFFFE"/>
      <path d="M106.718,62.039 L108.184,62.039 L108.184,67.069 L108.218,67.069 C108.451,66.652 108.818,66.269 109.267,66.036 C109.7,65.769 110.216,65.62 110.766,65.62 C111.849,65.62 113.582,66.286 113.582,69.068 L113.582,73.864 L112.116,73.864 L112.116,69.234 C112.116,67.918 111.632,66.836 110.249,66.836 C109.3,66.836 108.568,67.502 108.284,68.302 C108.201,68.501 108.184,68.718 108.184,69.001 L108.184,73.864 L106.718,73.864 L106.718,62.039" fill="#FFFFFE"/>
      <path d="M127.623,72.949 C129.021,72.949 130.071,71.633 130.071,69.8 C130.071,68.435 129.387,66.719 127.655,66.719 C125.94,66.719 125.191,68.318 125.191,69.851 C125.191,71.615 126.189,72.949 127.605,72.949 L127.623,72.949 z M127.572,74.048 C125.407,74.048 123.707,72.448 123.707,69.899 C123.707,67.202 125.49,65.62 127.706,65.62 C130.021,65.62 131.586,67.302 131.586,69.75 C131.586,72.749 129.504,74.048 127.588,74.048 L127.572,74.048" fill="#FFFFFE"/>
      <path d="M143.529,63.87 L143.529,65.804 L145.627,65.804 L145.627,66.919 L143.529,66.919 L143.529,71.267 C143.529,72.266 143.812,72.832 144.628,72.832 C145.028,72.832 145.261,72.799 145.478,72.731 L145.544,73.848 C145.261,73.947 144.811,74.048 144.246,74.048 C143.562,74.048 143.012,73.814 142.663,73.432 C142.263,72.982 142.096,72.266 142.096,71.316 L142.096,66.919 L140.847,66.919 L140.847,65.804 L142.096,65.804 L142.096,64.32 L143.529,63.87" fill="#FFFFFE"/>
      <path d="M158.836,72.949 C160.236,72.949 161.285,71.633 161.285,69.8 C161.285,68.435 160.601,66.719 158.87,66.719 C157.154,66.719 156.405,68.318 156.405,69.851 C156.405,71.615 157.404,72.949 158.82,72.949 L158.836,72.949 z M158.787,74.048 C156.621,74.048 154.922,72.448 154.922,69.899 C154.922,67.202 156.704,65.62 158.919,65.62 C161.235,65.62 162.8,67.302 162.8,69.75 C162.8,72.749 160.718,74.048 158.802,74.048 L158.787,74.048" fill="#FFFFFE"/>
      <path d="M178.423,68.968 C178.423,68.735 178.407,68.518 178.341,68.318 C178.074,67.452 177.374,66.753 176.291,66.753 C174.893,66.753 173.893,67.935 173.893,69.817 C173.893,71.383 174.709,72.715 176.275,72.715 C177.191,72.715 178.007,72.149 178.307,71.199 C178.39,70.967 178.423,70.683 178.423,70.417 L178.423,68.968 z M179.89,72.683 C179.89,74.548 179.507,75.663 178.74,76.38 C177.941,77.096 176.808,77.346 175.792,77.346 C174.826,77.346 173.76,77.112 173.11,76.68 L173.477,75.546 C174.009,75.896 174.842,76.196 175.842,76.196 C177.341,76.196 178.441,75.414 178.441,73.365 L178.441,72.482 L178.407,72.482 C177.975,73.231 177.091,73.831 175.842,73.831 C173.843,73.831 172.411,72.132 172.411,69.883 C172.411,67.152 174.193,65.62 176.058,65.62 C177.457,65.62 178.207,66.336 178.575,67.002 L178.607,67.002 L178.657,65.804 L179.956,65.804 C179.907,66.369 179.89,67.019 179.89,68.002 L179.89,72.683" fill="#FFFFFE"/>
      <path d="M190.65,68.318 C190.65,67.369 190.633,66.553 190.582,65.804 L191.865,65.804 L191.933,67.385 L191.983,67.385 C192.349,66.302 193.248,65.62 194.231,65.62 C194.38,65.62 194.498,65.637 194.629,65.669 L194.629,67.035 C194.464,67.019 194.314,67.002 194.114,67.002 C193.081,67.002 192.349,67.785 192.148,68.867 C192.115,69.085 192.099,69.317 192.099,69.567 L192.099,73.864 L190.633,73.864 L190.65,68.318" fill="#FFFFFE"/>
      <path d="M208.556,69.75 C206.957,69.718 205.142,70.001 205.142,71.566 C205.142,72.532 205.775,72.965 206.506,72.965 C207.574,72.965 208.256,72.299 208.489,71.615 C208.539,71.466 208.556,71.299 208.556,71.149 L208.556,69.75 z M209.988,71.932 C209.988,72.632 210.021,73.315 210.105,73.864 L208.789,73.864 L208.656,72.85 L208.606,72.85 C208.173,73.48 207.29,74.048 206.14,74.048 C204.508,74.048 203.675,72.898 203.675,71.733 C203.675,69.783 205.408,68.718 208.523,68.735 L208.523,68.568 C208.523,67.901 208.339,66.685 206.691,66.702 C205.923,66.702 205.142,66.919 204.575,67.302 L204.241,66.319 C204.909,65.903 205.89,65.62 206.906,65.62 C209.388,65.62 209.988,67.302 209.988,68.918 L209.988,71.932" fill="#FFFFFE"/>
      <path d="M222.129,70.583 C222.129,70.783 222.147,70.999 222.197,71.183 C222.447,72.199 223.345,72.898 224.379,72.898 C225.928,72.898 226.828,71.633 226.828,69.783 C226.828,68.167 225.995,66.785 224.446,66.785 C223.447,66.785 222.497,67.485 222.213,68.584 C222.181,68.785 222.129,69.001 222.129,69.184 L222.129,70.583 z M220.665,68.435 C220.665,67.401 220.648,66.569 220.598,65.804 L221.915,65.804 L221.998,67.185 L222.03,67.185 C222.614,66.185 223.58,65.62 224.877,65.62 C226.843,65.62 228.309,67.268 228.309,69.718 C228.309,72.615 226.528,74.048 224.645,74.048 C223.563,74.048 222.647,73.581 222.164,72.782 L222.129,72.782 L222.129,77.163 L220.665,77.163 L220.665,68.435" fill="#FFFFFE"/>
      <path d="M238.469,62.039 L239.936,62.039 L239.936,67.069 L239.97,67.069 C240.203,66.652 240.569,66.269 241.018,66.036 C241.451,65.769 241.967,65.62 242.518,65.62 C243.599,65.62 245.331,66.286 245.331,69.068 L245.331,73.864 L243.866,73.864 L243.866,69.234 C243.866,67.918 243.384,66.836 242,66.836 C241.051,66.836 240.32,67.502 240.036,68.302 C239.953,68.501 239.936,68.718 239.936,69.001 L239.936,73.864 L238.469,73.864 L238.469,62.039" fill="#FFFFFE"/>
      <path d="M256.36,65.804 L258.109,70.566 C258.307,71.1 258.508,71.733 258.64,72.216 L258.674,72.216 C258.824,71.733 258.991,71.117 259.19,70.533 L260.789,65.804 L262.338,65.804 L260.14,71.55 C259.091,74.314 258.374,75.729 257.374,76.612 C256.643,77.228 255.944,77.479 255.577,77.545 L255.209,76.312 C255.577,76.214 256.058,75.979 256.492,75.598 C256.893,75.28 257.374,74.715 257.725,73.965 C257.791,73.814 257.842,73.715 257.842,73.615 C257.842,73.531 257.809,73.415 257.725,73.248 L254.76,65.804 L256.36,65.804" fill="#FFFFFE"/>
      <path d="M68.787,16.277 C68.787,19.656 65.504,22.825 58.942,25.785 C53.635,28.184 47.655,29.932 41,31.029 C44.232,31.918 45.848,33.607 45.848,36.094 C45.848,38.344 43.473,40.3 38.728,41.957 C34.494,43.439 30.211,44.179 25.885,44.179 C24.024,44.179 22.301,43.821 20.721,43.104 C19.138,42.387 18.348,41.686 18.348,40.999 C18.348,40.073 19.251,39.192 21.062,38.356 C21.387,38.298 21.55,38.403 21.55,38.671 C20.578,39.3 20.091,39.987 20.091,40.733 C20.091,41.6 21.462,42.033 24.208,42.033 C28.162,42.033 32.49,41.183 37.189,39.484 C41.888,37.787 44.238,36.116 44.238,34.477 C44.238,33.702 43.4,33.031 41.727,32.465 C39.866,31.869 37.562,31.57 34.819,31.57 C33.607,31.57 32.083,31.813 30.247,32.297 C28.409,32.783 27.35,33.024 27.072,33.024 C25.721,33.024 25.049,32.766 25.049,32.247 C25.049,31.911 26.202,31.468 28.507,30.918 C30.813,30.369 32.968,30.095 34.971,30.095 C37.579,30.095 41.515,29.159 46.781,27.288 C52.043,25.418 56.585,23.304 60.405,20.945 C64.83,18.265 67.043,15.965 67.043,14.049 C67.043,13.106 66.159,12.348 64.391,11.773 C62.622,11.198 60.554,10.911 58.181,10.911 C55.205,10.911 51.505,11.282 47.086,12.022 C47.739,12.584 48.065,13.266 48.065,14.064 C48.065,14.183 45.989,15.648 41.838,18.461 C36.428,22.134 31.777,25.458 27.882,28.434 C23.989,31.411 20.362,34.361 17.004,37.292 C14.112,39.751 12.643,41.098 12.596,41.335 L12.806,41.423 C13.785,40.713 14.997,39.912 16.443,39.022 C16.629,39.053 16.792,39.142 16.933,39.289 C15.906,40.47 14.881,41.649 13.854,42.827 C11.989,44.89 10.798,45.923 10.287,45.923 C9.541,45.923 8.864,45.554 8.257,44.816 C7.65,44.167 7.348,43.58 7.348,43.048 C7.348,42.311 8.817,40.528 11.755,37.694 C14.459,35.041 17.585,32.299 21.131,29.468 C29.153,23.098 36.638,17.539 43.588,12.789 C36.468,14.173 29,16.101 21.182,18.57 C14.015,20.838 10.433,22.236 10.433,22.765 C10.433,22.911 10.594,22.984 10.921,22.984 C12.965,22.984 19.681,20.687 31.071,16.091 C31.721,16.032 32.091,16.135 32.186,16.396 C31.115,17.302 27.579,18.851 21.576,21.041 C15.432,23.322 11.499,24.46 9.779,24.46 C9.268,24.46 8.78,24.301 8.314,23.978 C7.849,23.655 7.617,23.275 7.617,22.836 C7.617,22.132 10.292,20.697 15.646,18.53 C21.464,16.158 27.633,14.152 34.152,12.511 C42.206,10.461 49.094,9.435 54.821,9.435 C64.132,9.435 68.787,11.716 68.787,16.277" fill="#FFFFFE"/>
      <path d="M67.871,32.016 C67.871,31.899 67.637,31.838 67.176,31.838 C64.355,31.838 61.024,33.006 57.186,35.341 C53.531,37.645 51.706,39.554 51.706,41.06 C51.706,41.889 52.353,42.301 53.648,42.301 C55.405,42.301 58.131,41.224 61.831,39.065 C65.39,36.996 67.172,35.562 67.172,34.765 C66.699,34.351 66.461,34.012 66.461,33.746 C66.461,33.33 66.696,32.932 67.165,32.547 C67.635,32.163 67.871,31.987 67.871,32.016 z M71.089,34.775 C71.414,35.014 71.297,35.145 70.74,35.175 C70.413,35.236 69.899,35.294 69.201,35.353 C67.568,37.226 65.33,38.949 62.483,40.522 C59.171,42.426 56.209,43.375 53.598,43.375 C50.1,43.375 48.352,42.395 48.352,40.433 C48.352,38.769 50.062,36.609 53.485,33.949 C56.906,31.291 59.594,29.96 61.552,29.96 C61.877,29.96 62.202,30.117 62.53,30.43 C62.854,30.744 63.11,30.899 63.298,30.899 C63.437,30.899 63.96,30.855 64.869,30.766 C65.776,30.677 66.463,30.631 66.928,30.631 C69.209,30.631 70.352,31.554 70.352,33.393 C70.297,33.483 70.297,33.574 70.352,33.661 C70.746,34.315 70.991,34.686 71.089,34.775" fill="#FFFFFE"/>
      <path d="M114.015,12.114 C114.015,11.582 113.593,11.314 112.755,11.314 C111.263,11.314 107.786,12.961 102.328,16.252 C97.707,19.011 93.997,21.474 91.2,23.637 C85.88,27.669 81.751,31.05 78.812,33.779 C82.591,32.713 89.263,29.391 98.828,23.814 C108.951,17.883 114.015,13.984 114.015,12.114 z M116.162,10.94 C116.162,13.189 113.52,16.179 108.243,19.905 C103.803,23.07 98.268,26.267 91.635,29.491 C85.469,32.479 80.587,34.461 76.991,35.434 C76.289,36.057 75.354,37.198 74.188,38.853 C72.926,40.687 72.296,41.944 72.296,42.624 C72.296,43.483 72.855,43.911 73.976,43.911 C75.934,43.911 78.735,42.836 82.376,40.681 C85.876,38.618 87.626,37.187 87.626,36.391 C87.243,35.978 87.051,35.624 87.051,35.328 C87.051,34.209 87.63,33.647 88.79,33.647 C90.223,33.647 90.942,34.094 90.942,34.986 L90.942,35.299 C91.262,35.924 91.463,36.282 91.546,36.37 C91.871,36.638 91.753,36.787 91.196,36.816 C90.914,36.846 90.403,36.906 89.657,36.994 C88.024,38.839 85.809,40.565 83.01,42.172 C79.653,44.046 76.666,44.984 74.054,44.984 C72.515,44.984 71.256,44.724 70.277,44.207 C69.296,43.686 68.808,42.954 68.808,42.004 C68.808,39.66 71.935,35.716 78.194,30.168 C84.078,25.008 90.546,20.276 97.599,15.975 C105.164,11.348 110.58,9.033 113.849,9.033 C115.39,9.033 116.162,9.671 116.162,10.94" fill="#FFFFFE"/>
      <path d="M172.317,14.294 C172.317,12.039 169.375,10.911 163.495,10.911 C160.505,10.911 156.795,11.282 152.36,12.022 C153.012,12.584 153.338,13.266 153.338,14.064 C153.338,14.183 151.264,15.648 147.114,18.459 C141.658,22.161 136.995,25.491 133.124,28.451 L131.071,29.973 C131.863,30.232 132.961,30.362 134.362,30.362 C139.356,30.362 144.982,29.369 151.239,27.38 C156.934,25.571 161.87,23.377 166.049,20.794 C170.226,18.212 172.317,16.047 172.317,14.294 z M174.195,15.602 C174.195,17.762 172.304,20.113 168.527,22.655 C164.748,25.2 160.036,27.299 154.393,28.954 C148.328,30.788 142.38,31.704 136.549,31.704 C135.709,31.704 134.869,31.66 134.031,31.57 C134.496,34.224 135.196,36.506 136.128,38.419 C137.621,41.454 139.555,42.972 141.937,42.972 C144.408,42.972 146.46,42.307 148.093,40.979 C148.604,40.861 148.977,40.965 149.211,41.287 C148.558,41.989 147.673,42.632 146.554,43.218 C145.013,44.039 143.45,44.447 141.865,44.447 C138.367,44.447 135.359,43.016 132.841,40.15 C130.928,38.056 129.436,35.399 128.365,32.18 C121.554,37.692 118.056,40.744 117.87,41.335 L118.08,41.423 C119.058,40.713 120.27,39.912 121.716,39.022 C121.903,39.053 122.066,39.142 122.207,39.289 C121.179,40.47 120.155,41.649 119.127,42.827 C117.262,44.89 116.072,45.923 115.56,45.923 C114.814,45.923 114.137,45.554 113.531,44.816 C112.923,44.167 112.622,43.58 112.622,43.048 C112.622,42.311 114.09,40.528 117.029,37.694 C119.734,35.041 122.859,32.299 126.405,29.468 C134.426,23.098 141.912,17.539 148.862,12.789 C141.742,14.173 134.273,16.101 126.456,18.57 C119.289,20.838 115.707,22.236 115.707,22.765 C115.707,22.911 115.868,22.984 116.195,22.984 C118.239,22.984 124.955,20.687 136.342,16.091 C136.992,16.032 137.363,16.135 137.457,16.396 C136.386,17.302 132.85,18.851 126.849,21.041 C120.706,23.322 116.773,24.46 115.052,24.46 C114.541,24.46 114.053,24.301 113.587,23.978 C113.123,23.655 112.89,23.275 112.89,22.836 C112.89,22.132 115.568,20.697 120.928,18.53 C126.752,16.158 132.927,14.152 139.453,12.511 C147.514,10.461 154.412,9.435 160.145,9.435 C164.896,9.435 168.485,10.028 170.91,11.211 C173.098,12.275 174.195,13.739 174.195,15.602" fill="#FFFFFE"/>
      <path d="M173.159,32.016 C173.159,31.899 172.926,31.838 172.465,31.838 C169.644,31.838 166.312,33.006 162.475,35.341 C158.819,37.645 156.994,39.554 156.994,41.06 C156.994,41.889 157.641,42.301 158.936,42.301 C160.693,42.301 163.42,41.224 167.12,39.065 C170.679,36.996 172.46,35.562 172.46,34.765 C171.987,34.351 171.75,34.012 171.75,33.746 C171.75,33.33 171.985,32.932 172.455,32.547 C172.924,32.163 173.159,31.987 173.159,32.016 z M176.378,34.775 C176.704,35.014 176.585,35.145 176.029,35.175 C175.702,35.236 175.188,35.294 174.49,35.353 C172.857,37.226 170.619,38.949 167.771,40.522 C164.459,42.426 161.498,43.375 158.886,43.375 C155.388,43.375 153.639,42.395 153.639,40.433 C153.639,38.769 155.35,36.609 158.773,33.949 C162.194,31.291 164.883,29.96 166.84,29.96 C167.165,29.96 167.491,30.117 167.817,30.43 C168.142,30.744 168.398,30.899 168.586,30.899 C168.725,30.899 169.248,30.855 170.158,30.766 C171.065,30.677 171.752,30.631 172.218,30.631 C174.498,30.631 175.64,31.554 175.64,33.393 C175.586,33.483 175.586,33.574 175.64,33.661 C176.035,34.315 176.281,34.686 176.378,34.775" fill="#FFFFFE"/>
      <path d="M200.757,34.406 C197.958,36.548 194.973,38.526 191.802,40.342 C187.28,42.9 183.781,44.179 181.309,44.179 C179.582,44.179 178.195,43.846 177.147,43.178 C176.097,42.509 175.573,41.595 175.573,40.433 C175.573,37.939 177.392,35.353 181.035,32.677 C184.351,30.241 187.082,29.02 189.231,29.02 C189.931,29.02 190.736,29.371 191.645,30.067 C192.554,30.763 193.012,31.318 193.012,31.733 C193.012,32.267 192.758,32.682 192.253,32.978 C191.747,33.276 191.263,33.423 190.805,33.423 C190.666,33.423 190.597,33.322 190.597,33.119 C190.597,33.033 190.642,32.861 190.732,32.601 C190.82,32.341 190.866,32.155 190.866,32.037 C190.866,31.547 190.676,31.302 190.304,31.302 C188.476,31.302 186.202,32.398 183.484,34.591 C180.624,36.933 179.195,39.128 179.195,41.169 C179.195,42.46 180.01,43.106 181.645,43.106 C183.699,43.106 186.988,41.79 191.515,39.153 C195.156,37.003 198.028,35.047 200.127,33.291 C200.546,33.291 200.802,33.425 200.897,33.693 C200.989,33.932 200.944,34.169 200.757,34.406" fill="#FFFFFE"/>
      <path d="M237.226,12.121 C237.226,11.584 236.806,11.314 235.97,11.314 C233.084,11.314 228.315,13.6 221.663,18.174 C216.731,21.583 212.637,24.796 209.38,27.814 C216.683,25.781 222.544,23.555 226.968,21.134 C233.804,17.428 237.226,14.422 237.226,12.121 z M200.705,37.733 C200.469,37.705 200.26,37.69 200.076,37.69 C199.748,37.69 199.655,37.69 199.796,37.69 C199.981,37.72 200.285,37.733 200.705,37.733 z M216.298,33.737 C216.298,32.92 215.601,32.509 214.208,32.509 C213.048,32.509 210.449,33.182 206.41,34.527 C203.067,35.668 200.699,36.56 199.306,37.202 C201.767,37.202 205.212,36.787 209.648,35.953 C214.081,35.119 216.298,34.381 216.298,33.737 z M239.373,11.481 C239.373,14.538 235.456,18.113 227.625,22.207 C223.197,24.551 216.531,26.939 207.627,29.371 C205.481,31.182 203.408,33.02 201.404,34.891 C202.473,34.127 204.471,33.176 207.402,32.031 C210.747,30.739 213.281,30.095 215.001,30.095 C216.071,30.095 217.022,30.488 217.861,31.272 C218.697,32.057 219.116,32.775 219.116,33.425 C219.116,34.313 217.676,35.202 214.796,36.089 C212.195,36.89 209.037,37.51 205.322,37.954 C206.161,38.252 207,38.857 207.841,39.776 C208.867,40.901 209.636,41.611 210.15,41.907 C211.222,42.618 212.646,42.972 214.418,42.972 C215.723,42.972 217.1,42.428 218.546,41.335 C218.778,41.425 218.896,41.513 218.896,41.6 L218.896,41.824 C217.356,42.863 216.4,43.472 216.026,43.649 C214.72,44.359 213.437,44.716 212.18,44.716 C210.78,44.716 209.636,44.331 208.751,43.559 C208.377,43.233 207.748,42.419 206.863,41.113 C206.068,39.958 205.276,39.142 204.484,38.667 C204.203,38.491 203.76,38.327 203.155,38.179 C201.146,38.389 199.304,38.491 197.627,38.491 C195.108,40.922 193.054,43.044 191.469,44.85 C190.584,44.85 190.14,44.538 190.14,43.915 C190.14,43.205 191.914,40.92 195.456,37.063 C200.77,31.281 206.642,25.822 213.078,20.691 C222.774,13.01 230.373,9.168 235.875,9.168 C236.623,9.168 237.392,9.435 238.183,9.969 C238.976,10.503 239.373,11.008 239.373,11.481" fill="#FFFFFE"/>
      <path d="M235.869,32.048 C235.869,31.552 235.282,31.302 234.108,31.302 C232.183,31.302 229.696,32.662 226.644,35.379 C228.333,35.145 230.329,34.591 232.63,33.712 C234.79,32.894 235.869,32.341 235.869,32.048 z M245.953,34.406 C243.714,36.162 241.125,37.873 238.186,39.538 C232.823,42.632 228.463,44.179 225.106,44.179 C223.378,44.179 221.991,43.846 220.943,43.178 C219.892,42.509 219.369,41.595 219.369,40.433 C219.369,37.939 221.188,35.353 224.831,32.677 C228.144,30.241 230.875,29.02 233.024,29.02 C233.538,29.02 234.051,29.149 234.565,29.405 C235.079,29.661 235.569,29.895 236.036,30.104 C236.501,30.316 236.992,30.526 237.507,30.736 C238.113,31.038 238.417,31.386 238.417,31.775 C238.417,32.739 236.686,33.867 233.227,35.161 C230.283,36.246 227.455,37.028 224.743,37.508 C223.573,38.925 222.991,40.142 222.991,41.165 C222.991,42.46 223.806,43.106 225.441,43.106 C228.006,43.106 231.624,41.834 236.291,39.289 C239.979,37.261 242.989,35.261 245.324,33.291 C245.743,33.291 245.998,33.425 246.092,33.693 C246.185,33.932 246.139,34.169 245.953,34.406" fill="#FFFFFE"/>
      <path d="M276.624,16.541 C275.785,16.572 274.642,17.036 273.198,17.932 C272.777,18.619 272.45,18.96 272.218,18.96 C272.031,18.96 271.715,18.791 271.273,18.45 C270.83,18.111 270.609,17.866 270.609,17.718 C270.609,17.658 270.923,17.223 271.552,16.409 C272.181,15.596 272.497,14.955 272.497,14.481 C272.497,13.802 272.102,13.46 271.309,13.46 C270.095,13.46 268.323,14.51 265.992,16.61 C264.357,18.091 263.028,19.51 262.002,20.867 C260.183,23.145 257.409,26.592 253.677,31.205 C254.657,31.205 257.012,31.427 260.744,31.869 C261.254,31.929 261.512,32.004 261.512,32.092 C261.512,32.507 261.186,32.697 260.534,32.669 L252.837,32.18 C249.898,35.765 245.35,41.033 239.197,47.992 C233.926,53.499 229.518,56.253 225.972,56.253 C224.62,56.253 223.595,55.864 222.895,55.089 C222.289,54.434 222.009,53.657 222.054,52.765 L222.054,52.228 C222.101,51.572 222.615,50.484 223.593,48.965 C224.666,47.294 225.601,46.46 226.394,46.46 C226.72,46.46 226.908,46.594 226.953,46.862 C224.941,48.89 223.932,50.901 223.932,52.899 C223.932,54.509 224.63,55.313 226.027,55.313 C228.214,55.313 232.193,51.997 237.961,45.368 C239.682,43.386 243.15,39.048 248.36,32.358 C246.167,32.299 243.58,32.551 240.593,33.112 C240.035,33.172 239.755,32.98 239.755,32.536 C239.755,32.241 240.081,32.062 240.735,32.004 C243.533,31.472 246.425,31.161 249.411,31.071 C250.949,28.971 253.819,25.51 258.017,20.687 C263.145,15.244 267.483,12.52 271.028,12.52 C272.148,12.52 272.963,13.022 273.477,14.022 C273.896,14.816 274.034,15.611 273.896,16.403 C274.689,16.107 275.342,15.9 275.856,15.78 C276.556,15.9 276.812,16.153 276.624,16.541" fill="#FFFFFE"/>
      <path d="M272.738,32.048 C272.738,31.552 272.151,31.302 270.977,31.302 C269.053,31.302 266.565,32.662 263.513,35.379 C265.203,35.145 267.198,34.591 269.499,33.712 C271.659,32.894 272.738,32.341 272.738,32.048 z M282.822,34.406 C280.583,36.162 277.995,37.873 275.056,39.538 C269.693,42.632 265.332,44.179 261.975,44.179 C260.247,44.179 258.86,43.846 257.812,43.178 C256.761,42.509 256.238,41.595 256.238,40.433 C256.238,37.939 258.057,35.353 261.701,32.677 C265.014,30.241 267.745,29.02 269.893,29.02 C270.407,29.02 270.92,29.149 271.434,29.405 C271.948,29.661 272.438,29.895 272.905,30.104 C273.371,30.316 273.861,30.526 274.376,30.736 C274.983,31.038 275.287,31.386 275.287,31.775 C275.287,32.739 273.555,33.867 270.097,35.161 C267.152,36.246 264.324,37.028 261.612,37.508 C260.442,38.925 259.86,40.142 259.86,41.165 C259.86,42.46 260.675,43.106 262.31,43.106 C264.875,43.106 268.494,41.834 273.161,39.289 C276.848,37.261 279.858,35.261 282.193,33.291 C282.612,33.291 282.868,33.425 282.962,33.693 C283.054,33.932 283.008,34.169 282.822,34.406" fill="#FFFFFE"/>
      <path d="M313.79,13.098 C313.79,12.536 313.533,12.253 313.021,12.253 C309.939,12.253 304.855,15.013 297.761,20.532 C291.696,25.192 287.564,28.916 285.372,31.704 C288.729,29.895 294.353,26.69 302.241,22.09 C305.274,20.281 307.956,18.455 310.289,16.614 C312.622,14.774 313.79,13.602 313.79,13.098 z M316.338,11.7 C316.338,14.032 311.705,18.005 302.44,23.615 C300.157,24.974 293.799,28.489 283.371,34.158 C280.576,37.939 279.179,40.451 279.179,41.689 C279.179,42.724 279.968,43.24 281.544,43.24 C282.656,43.24 283.581,43.05 284.324,42.668 C284.554,42.61 284.671,42.681 284.671,42.884 L284.602,43.143 C283.388,43.835 281.942,44.179 280.264,44.179 C277.931,44.179 276.765,43.309 276.765,41.566 C276.765,40.945 276.904,40.281 277.185,39.57 C278.442,36.646 281.217,32.836 285.506,28.139 C290.025,23.176 294.687,19.025 299.489,15.688 C305.081,11.79 309.765,9.838 313.542,9.838 C315.406,9.838 316.338,10.458 316.338,11.7" fill="#FFFFFE"/>
      <path d="M327.432,13.098 C327.432,12.536 327.174,12.253 326.663,12.253 C323.581,12.253 318.497,15.013 311.403,20.532 C305.337,25.192 301.206,28.916 299.014,31.704 C302.372,29.895 307.996,26.69 315.882,22.09 C318.915,20.281 321.599,18.455 323.932,16.614 C326.264,14.774 327.432,13.602 327.432,13.098 z M329.98,11.7 C329.98,14.032 325.346,18.005 316.081,23.615 C313.799,24.974 307.442,28.489 297.012,34.158 C294.217,37.939 292.823,40.451 292.823,41.689 C292.823,42.724 293.61,43.24 295.186,43.24 C296.297,43.24 297.223,43.05 297.966,42.668 C298.196,42.61 298.314,42.681 298.314,42.884 L298.245,43.143 C297.031,43.835 295.584,44.179 293.906,44.179 C291.573,44.179 290.408,43.309 290.408,41.566 C290.408,40.945 290.545,40.281 290.827,39.57 C292.084,36.646 294.86,32.836 299.148,28.139 C303.666,23.176 308.329,19.025 313.13,15.688 C318.722,11.79 323.408,9.838 327.185,9.838 C329.047,9.838 329.98,10.458 329.98,11.7" fill="#FFFFFE"/>
      <path d="M318.771,32.048 C318.771,31.552 318.184,31.302 317.01,31.302 C315.086,31.302 312.598,32.662 309.546,35.379 C311.236,35.145 313.231,34.591 315.533,33.712 C317.691,32.894 318.771,32.341 318.771,32.048 z M328.855,34.406 C326.616,36.162 324.028,37.873 321.089,39.538 C315.725,42.632 311.366,44.179 308.008,44.179 C306.281,44.179 304.893,43.846 303.845,43.178 C302.795,42.509 302.271,41.595 302.271,40.433 C302.271,37.939 304.09,35.353 307.733,32.677 C311.047,30.241 313.779,29.02 315.927,29.02 C316.44,29.02 316.954,29.149 317.467,29.405 C317.981,29.661 318.471,29.895 318.939,30.104 C319.404,30.316 319.895,30.526 320.411,30.736 C321.016,31.038 321.32,31.386 321.32,31.775 C321.32,32.739 319.588,33.867 316.129,35.161 C313.185,36.246 310.358,37.028 307.645,37.508 C306.476,38.925 305.893,40.142 305.893,41.165 C305.893,42.46 306.708,43.106 308.343,43.106 C310.909,43.106 314.527,41.834 319.195,39.289 C322.881,37.261 325.891,35.261 328.226,33.291 C328.646,33.291 328.901,33.425 328.996,33.693 C329.088,33.932 329.041,34.169 328.855,34.406" fill="#FFFFFE"/>
      <path d="M344.653,37.683 C343.112,38.921 341.152,40.174 338.771,41.439 C335.503,43.178 332.773,44.046 330.58,44.046 C329.74,44.046 328.994,43.863 328.339,43.494 C327.685,43.128 327.361,42.635 327.361,42.016 C327.361,41.194 328.588,39.826 331.049,37.914 C333.508,36.003 334.739,34.886 334.739,34.561 C334.739,34.355 334.363,34.253 333.618,34.253 C333.29,34.253 332.601,34.278 331.548,34.328 C330.496,34.379 329.643,34.401 328.99,34.401 C326.65,34.401 325.483,33.88 325.483,32.834 C325.483,32.117 326.497,31.08 328.526,29.719 C330.555,28.361 332.268,27.68 333.667,27.68 C335.114,27.68 335.836,27.935 335.836,28.447 C335.836,28.807 334.982,29.612 333.276,30.859 C331.568,32.106 330.714,32.775 330.714,32.863 C330.714,33.075 331.641,33.18 333.497,33.18 C336.56,33.18 338.092,33.926 338.092,35.416 C338.092,36.072 336.862,37.323 334.404,39.173 C331.942,41.02 330.714,42.077 330.714,42.346 C330.714,42.765 330.995,42.972 331.559,42.972 C332.967,42.972 335.079,42.268 337.895,40.855 C339.396,40.105 341.626,38.782 344.581,36.89 C345.141,36.89 345.164,37.155 344.653,37.683" fill="#FFFFFE"/>
      <path d="M20.14,60.413 C20.14,60.413 154.287,31.437 317.409,57.194 C317.409,57.194 167.165,37.877 27.652,64.706 L20.14,60.413" fill="#FFFFFE"/>
    </g>
  </g>
</svg>
